<svg width="221" height="25" viewBox="0 0 221 25" fill="none" xmlns="http://www.w3.org/2000/svg">
<path d="M17.585 0.2C23.2783 0.2 27.5483 1.16833 30.395 3.105C33.265 5.04167 34.7 8.09833 34.7 12.275C34.7 16.475 33.2767 19.5433 30.43 21.48C27.5833 23.4167 23.3017 24.385 17.585 24.385C11.845 24.385 7.55167 23.4167 4.705 21.48C1.88167 19.5433 0.47 16.475 0.47 12.275C0.47 8.09833 1.89333 5.04167 4.74 3.105C7.58667 1.16833 11.8683 0.2 17.585 0.2ZM17.585 18.295C19.405 18.295 20.945 18.225 22.205 18.085C23.465 17.9217 24.48 17.6183 25.25 17.175C26.0433 16.7317 26.615 16.125 26.965 15.355C27.315 14.5617 27.49 13.535 27.49 12.275C27.49 11.015 27.315 10 26.965 9.23C26.615 8.43667 26.0433 7.83 25.25 7.41C24.48 6.96667 23.465 6.675 22.205 6.535C20.945 6.37167 19.405 6.29 17.585 6.29C15.765 6.29 14.225 6.37167 12.965 6.535C11.705 6.675 10.6783 6.96667 9.885 7.41C9.115 7.83 8.555 8.43667 8.205 9.23C7.855 10 7.68 11.015 7.68 12.275C7.68 13.535 7.855 14.5617 8.205 15.355C8.555 16.125 9.115 16.7317 9.885 17.175C10.6783 17.6183 11.705 17.9217 12.965 18.085C14.225 18.225 15.765 18.295 17.585 18.295ZM62.0883 24.385C61.6217 24.385 61.155 24.3033 60.6883 24.14C60.245 24 59.7433 23.6617 59.1833 23.125L44.8333 10.245V24H38.2533V4.575C38.2533 3.805 38.3583 3.14 38.5683 2.58C38.8017 2.02 39.0933 1.565 39.4433 1.215C39.8167 0.865 40.2367 0.608333 40.7033 0.444999C41.1933 0.281666 41.695 0.2 42.2083 0.2C42.6517 0.2 43.095 0.281666 43.5383 0.444999C44.005 0.584998 44.53 0.923331 45.1133 1.46L59.4633 14.34V0.584999H66.0783V19.975C66.0783 20.745 65.9617 21.41 65.7283 21.97C65.5183 22.53 65.2267 22.9967 64.8533 23.37C64.5033 23.72 64.0833 23.9767 63.5933 24.14C63.1033 24.3033 62.6017 24.385 62.0883 24.385ZM77.7005 24H70.4555V0.584999H77.7005V24ZM105.941 24.385C105.474 24.385 105.008 24.3033 104.541 24.14C104.098 24 103.596 23.6617 103.036 23.125L88.6859 10.245V24H82.1059V4.575C82.1059 3.805 82.2109 3.14 82.4209 2.58C82.6542 2.02 82.9459 1.565 83.2959 1.215C83.6692 0.865 84.0892 0.608333 84.5559 0.444999C85.0459 0.281666 85.5475 0.2 86.0609 0.2C86.5042 0.2 86.9475 0.281666 87.3909 0.444999C87.8575 0.584998 88.3825 0.923331 88.9659 1.46L103.316 14.34V0.584999H109.931V19.975C109.931 20.745 109.814 21.41 109.581 21.97C109.371 22.53 109.079 22.9967 108.706 23.37C108.356 23.72 107.936 23.9767 107.446 24.14C106.956 24.3033 106.454 24.385 105.941 24.385ZM130.583 0.2C136.276 0.2 140.546 1.16833 143.393 3.105C146.263 5.04167 147.698 8.09833 147.698 12.275C147.698 16.475 146.275 19.5433 143.428 21.48C140.581 23.4167 136.3 24.385 130.583 24.385C124.843 24.385 120.55 23.4167 117.703 21.48C114.88 19.5433 113.468 16.475 113.468 12.275C113.468 8.09833 114.891 5.04167 117.738 3.105C120.585 1.16833 124.866 0.2 130.583 0.2ZM130.583 18.295C132.403 18.295 133.943 18.225 135.203 18.085C136.463 17.9217 137.478 17.6183 138.248 17.175C139.041 16.7317 139.613 16.125 139.963 15.355C140.313 14.5617 140.488 13.535 140.488 12.275C140.488 11.015 140.313 10 139.963 9.23C139.613 8.43667 139.041 7.83 138.248 7.41C137.478 6.96667 136.463 6.675 135.203 6.535C133.943 6.37167 132.403 6.29 130.583 6.29C128.763 6.29 127.223 6.37167 125.963 6.535C124.703 6.675 123.676 6.96667 122.883 7.41C122.113 7.83 121.553 8.43667 121.203 9.23C120.853 10 120.678 11.015 120.678 12.275C120.678 13.535 120.853 14.5617 121.203 15.355C121.553 16.125 122.113 16.7317 122.883 17.175C123.676 17.6183 124.703 17.9217 125.963 18.085C127.223 18.225 128.763 18.295 130.583 18.295ZM171.685 17.98C173.061 17.98 174.216 17.8983 175.15 17.735C176.106 17.5717 176.865 17.3033 177.425 16.93C178.008 16.5567 178.416 16.0783 178.65 15.495C178.906 14.9117 179.035 14.2 179.035 13.36V0.584999H186.315V13.36C186.315 20.4533 181.438 24 171.685 24H162.935L167.66 17.98H171.685ZM212.09 9.93C214.96 9.93 217.141 10.4667 218.635 11.54C220.128 12.59 220.875 14.1883 220.875 16.335C220.875 17.525 220.688 18.5983 220.315 19.555C219.941 20.5117 219.346 21.3167 218.53 21.97C217.713 22.6233 216.663 23.125 215.38 23.475C214.12 23.825 212.603 24 210.83 24H189.025L193.68 17.98H211.39C212.253 17.98 212.883 17.8517 213.28 17.595C213.676 17.315 213.875 16.8717 213.875 16.265C213.875 15.6583 213.676 15.2267 213.28 14.97C212.883 14.7133 212.253 14.585 211.39 14.585H198.65C197.133 14.585 195.826 14.4217 194.73 14.095C193.633 13.7683 192.723 13.3133 192 12.73C191.276 12.1467 190.74 11.4467 190.39 10.63C190.04 9.79 189.865 8.86833 189.865 7.865C189.865 6.76833 190.051 5.77667 190.425 4.89C190.821 3.98 191.416 3.21 192.21 2.58C193.026 1.95 194.065 1.46 195.325 1.11C196.608 0.759999 198.136 0.584999 199.91 0.584999H220.245L215.59 6.675H199.35C198.51 6.675 197.88 6.79167 197.46 7.025C197.063 7.25833 196.865 7.67833 196.865 8.285C196.865 8.89167 197.063 9.32333 197.46 9.58C197.88 9.81333 198.51 9.93 199.35 9.93H212.09Z" fill="url(#paint0_linear_22_63)"/>
<defs>
<linearGradient id="paint0_linear_22_63" x1="-5.95555" y1="36.9225" x2="207.214" y2="103.196" gradientUnits="userSpaceOnUse">
<stop stop-color="#89C6FF"/>
<stop offset="1" stop-color="#3633D0"/>
</linearGradient>
</defs>
</svg>
