<svg width="26" height="20" viewBox="0 0 26 20" fill="none" xmlns="http://www.w3.org/2000/svg">
<path fill-rule="evenodd" clip-rule="evenodd" d="M26 1.42857C26 0.6396 25.3533 0 24.5556 0H1.44444C0.646679 0 0 0.6396 0 1.42857C0 2.21754 0.646679 2.85714 1.44444 2.85714H24.5556C25.3533 2.85714 26 2.21754 26 1.42857ZM26 10C26 9.211 25.3533 8.57143 24.5556 8.57143H10.1111C9.31334 8.57143 8.66667 9.211 8.66667 10C8.66667 10.789 9.31334 11.4286 10.1111 11.4286H24.5556C25.3533 11.4286 26 10.789 26 10ZM26 18.5714C26 17.7824 25.3533 17.1429 24.5556 17.1429H17.3333C16.5356 17.1429 15.8889 17.7824 15.8889 18.5714C15.8889 19.3604 16.5356 20 17.3333 20H24.5556C25.3533 20 26 19.3604 26 18.5714Z" fill="url(#paint0_linear_26_13)"/>
<defs>
<linearGradient id="paint0_linear_26_13" x1="26.5778" y1="21.8244" x2="-0.513829" y2="23.9358" gradientUnits="userSpaceOnUse">
<stop stop-color="#89C6FF"/>
<stop offset="1" stop-color="#3633D0"/>
</linearGradient>
</defs>
</svg>
