<svg width="229" height="331" viewBox="0 0 229 331" fill="none" xmlns="http://www.w3.org/2000/svg">
<path d="M204.027 125.72V89.6224C204.027 77.5326 201.657 65.7925 196.985 54.7309C192.475 44.0561 186.021 34.4736 177.805 26.2483C169.588 18.0229 160.015 11.5643 149.352 7.04823C138.304 2.37286 126.578 0 114.499 0C102.42 0 90.694 2.37286 79.644 7.0503C68.9804 11.5664 59.408 18.025 51.1913 26.2504C42.9746 34.4757 36.5227 44.0582 32.0114 54.7329C27.3367 65.7945 24.9684 77.5326 24.9684 89.6245V125.722C10.4073 131.004 0 144.974 0 161.379V293.082C0 314.024 16.9584 331 37.8784 331H191.122C212.042 331 229 314.024 229 293.082V161.379C229 144.976 218.593 131.006 204.029 125.72H204.027ZM114.499 37.9181C142.979 37.9181 166.149 61.1129 166.149 89.6224V123.461H62.8489V89.6224C62.8489 61.1129 86.0194 37.9181 114.499 37.9181ZM124.326 223.624L131.631 272.483C132.274 276.78 128.949 280.645 124.607 280.645H103.833C99.4935 280.645 96.1684 276.78 96.809 272.483L104.139 223.396C95.007 219.391 88.6295 210.257 88.6522 199.632C88.6812 185.575 100.089 174.013 114.129 173.816C128.572 173.616 140.344 185.275 140.344 199.686C140.344 210.493 133.724 219.749 124.326 223.622V223.624Z" fill="#04041D"/>
</svg>
